<svg width="200" height="200" viewBox="0 0 200 200" fill="none" xmlns="http://www.w3.org/2000/svg">
<rect width="200" height="200" rx="44" fill="#4D3167"/>
<path d="M13.1445 131.6L13.9445 125.5C15.8112 125.3 17.0112 124.8 17.5445 124C18.1445 123.2 18.4779 121.6 18.5445 119.2C18.6112 117.933 18.6779 116.367 18.7445 114.5C18.8112 112.7 18.8779 110.833 18.9445 108.9C19.0112 107.033 19.0445 105.367 19.0445 103.9V75.6C19.0445 73.3333 18.6779 71.7667 17.9445 70.9C17.2779 70.0333 16.0112 69.6 14.1445 69.6H12.8445L12.4445 69.1L12.9445 63.9C15.9445 63.4333 18.8445 62.9667 21.6445 62.5C24.4445 61.9667 26.7112 61.5333 28.4445 61.2C30.2445 60.8 31.1445 60.6 31.1445 60.6L32.0445 61.6C32.0445 61.6 31.8779 62.3 31.5445 63.7C31.2779 65.0333 31.0779 66.4333 30.9445 67.9L31.3445 68.4C33.9445 66 36.1112 64.2 37.8445 63C39.5779 61.7333 40.7779 61.1 41.4445 61.1C45.3779 61.1 48.8112 62 51.7445 63.8C54.7445 65.6 57.0779 68.1667 58.7445 71.5C60.4112 74.7667 61.2445 78.6 61.2445 83C61.2445 86.9333 60.5779 90.5 59.2445 93.7C57.9779 96.8333 56.1445 99.5667 53.7445 101.9C51.4112 104.167 48.6112 105.933 45.3445 107.2C42.1445 108.4 38.6112 109 34.7445 109C34.2779 109 33.6779 108.967 32.9445 108.9C32.2779 108.833 31.6779 108.767 31.1445 108.7C30.6112 108.7 30.3445 108.7 30.3445 108.7C30.3445 110.167 30.3445 111.667 30.3445 113.2C30.4112 114.8 30.4445 116.4 30.4445 118C30.4445 120.6 30.6445 122.4 31.0445 123.4C31.4445 124.4 32.4445 124.9 34.0445 124.9C34.7779 124.9 35.5445 124.867 36.3445 124.8C37.2112 124.733 37.8112 124.7 38.1445 124.7L38.3445 125.1L37.2445 131.2C36.8445 131.2 36.1445 131.167 35.1445 131.1C34.2112 131.1 33.1445 131.067 31.9445 131C30.8112 131 29.6445 131 28.4445 131C27.2445 131 26.1779 131 25.2445 131C23.3779 131 21.5112 131.033 19.6445 131.1C17.7779 131.233 16.2112 131.333 14.9445 131.4C13.7445 131.533 13.1445 131.6 13.1445 131.6ZM38.2445 100.9C41.5112 100.9 44.0445 99.7 45.8445 97.3C47.6445 94.8333 48.5445 91.3333 48.5445 86.8C48.5445 83.5333 48.1112 80.7 47.2445 78.3C46.4445 75.9 45.2779 74.0667 43.7445 72.8C42.2779 71.4667 40.5445 70.8 38.5445 70.8C37.6112 70.8 36.4779 71.1 35.1445 71.7C33.8112 72.2333 32.5445 72.9667 31.3445 73.9C31.2112 76.5 31.0779 79.3 30.9445 82.3C30.8779 85.3 30.8112 88.3 30.7445 91.3C30.7445 94.2333 30.7445 96.9333 30.7445 99.4C31.4779 99.6667 32.5445 100 33.9445 100.4C35.3445 100.733 36.7779 100.9 38.2445 100.9Z" fill="white"/>
<path d="M172.998 125.2C168.265 125.2 164.798 124.2 162.598 122.2C160.398 120.2 159.298 117.1 159.298 112.9V90.6C159.298 88.5333 158.932 87.1333 158.198 86.4C157.465 85.6667 156.032 85.2667 153.898 85.2L152.898 84.5L153.598 79.6C155.732 78.6 157.798 77.5 159.798 76.3C161.798 75.0333 163.565 73.8667 165.098 72.8C166.698 71.6667 167.965 70.7667 168.898 70.1C169.832 69.3667 170.298 69 170.298 69L173.098 70.4C173.098 70.4 172.965 71.1667 172.698 72.7C172.498 74.1667 172.265 76.2667 171.998 79L183.798 78.7L184.198 79.2L183.198 85.9L171.398 85.6C171.198 88.4667 171.032 91.7333 170.898 95.4C170.832 99 170.798 103 170.798 107.4C170.798 110.267 171.298 112.333 172.298 113.6C173.298 114.867 174.932 115.5 177.198 115.5C178.665 115.5 180.032 115.267 181.298 114.8C182.565 114.333 183.198 114.1 183.198 114.1L184.498 117.3C184.498 117.3 184.032 117.7 183.098 118.5C182.232 119.3 181.132 120.233 179.798 121.3C178.532 122.3 177.265 123.2 175.998 124C174.732 124.8 173.732 125.2 172.998 125.2Z" fill="white"/>
<path d="M101.891 122.3C94.6914 122.3 89.1914 120.2 85.3914 116C81.7914 111.8 79.9914 106.5 79.9914 100.1C79.9914 92.9 82.0914 87.1 86.2914 82.7C90.6914 78.1 96.5914 75.8 103.991 75.8C110.991 75.8 116.391 77.9 120.191 82.1C123.991 86.1 125.891 91.4 125.891 98C125.891 105 123.691 110.8 119.291 115.4C115.091 120 109.291 122.3 101.891 122.3Z" fill="white"/>
</svg>
