<svg width="1000" height="1000" viewBox="0 0 1000 1000" fill="none" xmlns="http://www.w3.org/2000/svg">
<rect width="1000" height="1000" rx="50" fill="#10253D"/>
<path d="M214 400V429.5C241.667 407.167 270.833 396 301.5 396C363.833 396 395 436.5 395 517.5C395 558.833 385.5 589.667 366.5 610C347.5 630.333 324 640.5 296 640.5C278 640.5 263.167 637.667 251.5 632C239.833 626.333 227.333 617.667 214 606V717H169V400H214ZM214 473V563.5C237.667 589.833 262.333 603 288 603C307 603 322.167 596.167 333.5 582.5C345.167 568.5 351 546.667 351 517C351 487 346.167 465.667 336.5 453C326.833 440 312.167 433.5 292.5 433.5C279.167 433.5 265.167 437.333 250.5 445C236.167 452.667 224 462 214 473ZM464.844 429.5C486.51 406.833 515.177 395.5 550.844 395.5C586.51 395.5 615.177 406.833 636.844 429.5C658.51 452.167 669.344 482.167 669.344 519.5C669.344 555.833 658.344 585.167 636.344 607.5C614.677 629.5 586.01 640.5 550.344 640.5C515.01 640.5 486.51 629.5 464.844 607.5C443.177 585.167 432.344 555.833 432.344 519.5C432.344 482.167 443.177 452.167 464.844 429.5ZM550.344 602C573.01 602 591.177 594.5 604.844 579.5C618.51 564.167 625.344 544.167 625.344 519.5C625.344 493.833 618.51 473.167 604.844 457.5C591.177 441.833 573.177 434 550.844 434C528.51 434 510.51 441.833 496.844 457.5C483.177 473.167 476.344 493.833 476.344 519.5C476.344 544.167 483.01 564.167 496.344 579.5C510.01 594.5 528.01 602 550.344 602ZM849.293 594L854.293 627C833.626 634.333 815.293 638 799.293 638C774.293 638 756.293 631.833 745.293 619.5C734.293 606.833 728.793 586.667 728.793 559V438H693.293V400H728.793V341H773.793V400H843.793V438H773.793V557.5C773.793 572.833 776.793 583.167 782.793 588.5C788.793 593.833 799.293 596.5 814.293 596.5C825.96 596.5 837.626 595.667 849.293 594Z" fill="white"/>
</svg>
